# Blender 4.0.1
# www.blender.org
mtllib sphere1.mtl
o Quad_Sphere
v -0.893110 -0.105302 0.893110
v -0.954008 -0.567523 0.567523
v -1.001629 -0.237151 0.688453
v -0.893110 -0.893110 0.105303
v -1.001629 -0.688453 0.237151
v -1.204925 -0.217462 0.217462
v -0.567523 -0.567523 0.954004
v -0.688453 -0.237151 1.001627
v -0.567523 -0.954004 0.567523
v -0.712498 -0.712498 0.712498
v -0.857472 -0.395252 0.857473
v -0.688453 -1.001627 0.237151
v -0.857472 -0.857473 0.395252
v -0.105303 -0.893110 0.893110
v -0.237151 -0.688453 1.001627
v -0.217462 -0.217462 1.204922
v -0.237151 -1.001627 0.688453
v -0.395252 -0.857472 0.857472
v -0.217462 -1.204922 0.217462
v -0.893110 0.105302 0.893110
v -1.001627 0.237151 0.688453
v -0.954004 0.567523 0.567523
v -1.204922 0.217462 0.217462
v -1.001627 0.688453 0.237151
v -0.893110 0.893110 0.105302
v -0.688453 0.237151 1.001629
v -0.567523 0.567523 0.954008
v -0.857473 0.395252 0.857472
v -0.712498 0.712498 0.712498
v -0.567523 0.954008 0.567523
v -0.857472 0.857472 0.395251
v -0.688453 1.001629 0.237151
v -0.217462 0.217462 1.204925
v -0.237151 0.688453 1.001629
v -0.105302 0.893110 0.893110
v -0.395252 0.857473 0.857473
v -0.237151 1.001629 0.688453
v -0.217462 1.204925 0.217462
v -0.893110 -0.893110 -0.105303
v -1.001627 -0.688453 -0.237151
v -1.204922 -0.217462 -0.217462
v -0.954004 -0.567523 -0.567523
v -1.001627 -0.237151 -0.688453
v -0.893110 -0.105303 -0.893110
v -0.688453 -1.001629 -0.237151
v -0.857473 -0.857472 -0.395252
v -0.567524 -0.954008 -0.567524
v -0.712498 -0.712498 -0.712498
v -0.857473 -0.395252 -0.857472
v -0.567524 -0.567524 -0.954008
v -0.688453 -0.237151 -1.001629
v -0.217462 -1.204925 -0.217462
v -0.237151 -1.001629 -0.688453
v -0.395252 -0.857473 -0.857473
v -0.105303 -0.893110 -0.893110
v -0.237151 -0.688453 -1.001629
v -0.217462 -0.217462 -1.204925
v -1.204925 0.217462 -0.217462
v -1.001629 0.688453 -0.237151
v -0.893110 0.893110 -0.105302
v -1.001629 0.237151 -0.688453
v -0.954008 0.567523 -0.567523
v -0.893110 0.105302 -0.893110
v -0.857472 0.857473 -0.395252
v -0.688453 1.001627 -0.237151
v -0.857472 0.395252 -0.857473
v -0.712498 0.712498 -0.712498
v -0.567523 0.954004 -0.567523
v -0.688453 0.237151 -1.001627
v -0.567523 0.567523 -0.954004
v -0.217462 1.204922 -0.217462
v -0.395252 0.857472 -0.857472
v -0.237151 1.001627 -0.688453
v -0.217462 0.217462 -1.204922
v -0.237151 0.688453 -1.001627
v -0.105303 0.893110 -0.893110
v 0.105303 -0.893110 0.893110
v 0.237151 -0.688453 1.001629
v 0.217462 -0.217462 1.204925
v 0.237151 -1.001629 0.688453
v 0.395252 -0.857473 0.857473
v 0.217462 -1.204925 0.217462
v 0.567524 -0.567524 0.954008
v 0.688453 -0.237151 1.001629
v 0.567524 -0.954008 0.567524
v 0.712498 -0.712498 0.712498
v 0.857473 -0.395252 0.857472
v 0.688453 -1.001629 0.237151
v 0.857473 -0.857472 0.395252
v 0.893110 -0.105303 0.893110
v 0.954004 -0.567523 0.567523
v 1.001627 -0.237151 0.688453
v 0.893110 -0.893110 0.105303
v 1.001627 -0.688453 0.237151
v 1.204922 -0.217462 0.217462
v 0.217462 0.217462 1.204922
v 0.237151 0.688453 1.001627
v 0.105302 0.893110 0.893110
v 0.395252 0.857472 0.857472
v 0.237151 1.001627 0.688453
v 0.217462 1.204922 0.217462
v 0.688453 0.237151 1.001627
v 0.567523 0.567523 0.954004
v 0.857472 0.395252 0.857473
v 0.712498 0.712498 0.712498
v 0.567523 0.954004 0.567523
v 0.857472 0.857473 0.395252
v 0.688453 1.001627 0.237151
v 0.893110 0.105303 0.893110
v 1.001629 0.237151 0.688453
v 0.954008 0.567524 0.567524
v 1.204925 0.217462 0.217462
v 1.001629 0.688453 0.237151
v 0.893110 0.893110 0.105303
v 0.217462 -1.204922 -0.217462
v 0.237151 -1.001627 -0.688453
v 0.395252 -0.857472 -0.857472
v 0.105303 -0.893110 -0.893110
v 0.237151 -0.688453 -1.001627
v 0.217462 -0.217462 -1.204922
v 0.688453 -1.001627 -0.237151
v 0.857472 -0.857473 -0.395252
v 0.567523 -0.954004 -0.567523
v 0.712498 -0.712498 -0.712498
v 0.857472 -0.395252 -0.857473
v 0.567523 -0.567523 -0.954004
v 0.688453 -0.237151 -1.001627
v 0.893110 -0.893110 -0.105303
v 1.001629 -0.688453 -0.237151
v 1.204925 -0.217462 -0.217462
v 0.954008 -0.567524 -0.567524
v 1.001629 -0.237151 -0.688453
v 0.893110 -0.105303 -0.893110
v 0.217462 1.204925 -0.217462
v 0.395252 0.857473 -0.857473
v 0.237151 1.001629 -0.688453
v 0.217462 0.217462 -1.204925
v 0.237151 0.688453 -1.001629
v 0.105303 0.893110 -0.893110
v 0.857473 0.857472 -0.395252
v 0.688453 1.001629 -0.237151
v 0.857473 0.395252 -0.857472
v 0.712498 0.712498 -0.712498
v 0.567523 0.954008 -0.567523
v 0.688453 0.237151 -1.001629
v 0.567523 0.567523 -0.954008
v 1.204922 0.217462 -0.217462
v 1.001627 0.688453 -0.237151
v 0.893110 0.893110 -0.105303
v 1.001627 0.237151 -0.688453
v 0.954004 0.567523 -0.567523
v 0.893110 0.105303 -0.893110
vn -0.8920 -0.3197 0.3197
vn -0.5047 -0.4299 0.7487
vn -0.7487 -0.4299 0.5047
vn -0.6967 -0.1713 0.6967
vn -0.5047 -0.7487 0.4299
vn -0.6967 -0.6967 0.1713
vn -0.7487 -0.5047 0.4299
vn -0.3197 -0.3197 0.8920
vn -0.1713 -0.6967 0.6967
vn -0.4299 -0.7487 0.5047
vn -0.4299 -0.5047 0.7487
vn -0.3197 -0.8920 0.3197
vn -0.8835 -0.0000 0.4685
vn -0.9181 -0.0000 0.3963
vn -0.8920 0.3197 0.3197
vn -0.4685 -0.0000 0.8835
vn -0.6967 0.1713 0.6967
vn -0.5047 0.4299 0.7487
vn -0.7487 0.4299 0.5047
vn -0.7487 0.5047 0.4299
vn -0.5047 0.7487 0.4299
vn -0.6967 0.6967 0.1713
vn -0.3963 -0.0000 0.9181
vn -0.3197 0.3197 0.8920
vn -0.4299 0.5047 0.7487
vn -0.1713 0.6967 0.6967
vn -0.4299 0.7487 0.5047
vn -0.3197 0.8920 0.3197
vn -0.8835 -0.4685 -0.0000
vn -0.9181 -0.3963 -0.0000
vn -0.8920 -0.3197 -0.3197
vn -0.4685 -0.8835 -0.0000
vn -0.6967 -0.6967 -0.1713
vn -0.5047 -0.7487 -0.4299
vn -0.7487 -0.5047 -0.4299
vn -0.7487 -0.4299 -0.5047
vn -0.5047 -0.4299 -0.7487
vn -0.6967 -0.1713 -0.6967
vn -0.3963 -0.9181 -0.0000
vn -0.3197 -0.8920 -0.3197
vn -0.4299 -0.7487 -0.5047
vn -0.1713 -0.6967 -0.6967
vn -0.4299 -0.5047 -0.7487
vn -0.3197 -0.3197 -0.8920
vn -1.0000 -0.0000 -0.0000
vn -0.9181 0.3963 -0.0000
vn -0.8835 0.4685 -0.0000
vn -0.9181 -0.0000 -0.3963
vn -0.8920 0.3197 -0.3197
vn -0.8835 -0.0000 -0.4685
vn -0.6967 0.6967 -0.1713
vn -0.4685 0.8835 -0.0000
vn -0.7487 0.4299 -0.5047
vn -0.7487 0.5047 -0.4299
vn -0.5047 0.7487 -0.4299
vn -0.4685 -0.0000 -0.8835
vn -0.6967 0.1713 -0.6967
vn -0.5047 0.4299 -0.7487
vn -0.3963 0.9181 -0.0000
vn -0.4299 0.7487 -0.5047
vn -0.3197 0.8920 -0.3197
vn -0.3963 -0.0000 -0.9181
vn -0.3197 0.3197 -0.8920
vn -0.4299 0.5047 -0.7487
vn -0.1713 0.6967 -0.6967
vn -0.0000 -0.4685 0.8835
vn -0.0000 -0.3963 0.9181
vn -0.0000 -0.8835 0.4685
vn 0.1713 -0.6967 0.6967
vn -0.0000 -0.9181 0.3963
vn 0.3197 -0.3197 0.8920
vn 0.4299 -0.7487 0.5047
vn 0.4299 -0.5047 0.7487
vn 0.5047 -0.4299 0.7487
vn 0.3197 -0.8920 0.3197
vn 0.5047 -0.7487 0.4299
vn 0.7487 -0.4299 0.5047
vn 0.6967 -0.1713 0.6967
vn 0.6967 -0.6967 0.1713
vn 0.7487 -0.5047 0.4299
vn 0.8920 -0.3197 0.3197
vn -0.0000 -0.0000 1.0000
vn -0.0000 0.3963 0.9181
vn -0.0000 0.4685 0.8835
vn 0.1713 0.6967 0.6967
vn -0.0000 0.8835 0.4685
vn -0.0000 0.9181 0.3963
vn 0.3963 -0.0000 0.9181
vn 0.3197 0.3197 0.8920
vn 0.5047 0.4299 0.7487
vn 0.4299 0.5047 0.7487
vn 0.4299 0.7487 0.5047
vn 0.5047 0.7487 0.4299
vn 0.3197 0.8920 0.3197
vn 0.4685 -0.0000 0.8835
vn 0.8835 -0.0000 0.4685
vn 0.6967 0.1713 0.6967
vn 0.7487 0.4299 0.5047
vn 0.9181 -0.0000 0.3963
vn 0.8920 0.3197 0.3197
vn 0.7487 0.5047 0.4299
vn 0.6967 0.6967 0.1713
vn -0.0000 -1.0000 -0.0000
vn -0.0000 -0.9181 -0.3963
vn -0.0000 -0.8835 -0.4685
vn 0.1713 -0.6967 -0.6967
vn -0.0000 -0.4685 -0.8835
vn -0.0000 -0.3963 -0.9181
vn 0.3963 -0.9181 -0.0000
vn 0.3197 -0.8920 -0.3197
vn 0.5047 -0.7487 -0.4299
vn 0.4299 -0.7487 -0.5047
vn 0.4299 -0.5047 -0.7487
vn 0.5047 -0.4299 -0.7487
vn 0.3197 -0.3197 -0.8920
vn 0.4685 -0.8835 -0.0000
vn 0.8835 -0.4685 -0.0000
vn 0.6967 -0.6967 -0.1713
vn 0.9181 -0.3963 -0.0000
vn 0.7487 -0.5047 -0.4299
vn 0.8920 -0.3197 -0.3197
vn 0.7487 -0.4299 -0.5047
vn 0.6967 -0.1713 -0.6967
vn -0.0000 1.0000 -0.0000
vn -0.0000 0.9181 -0.3963
vn -0.0000 -0.0000 -1.0000
vn -0.0000 0.3963 -0.9181
vn 0.1713 0.6967 -0.6967
vn -0.0000 0.4685 -0.8835
vn -0.0000 0.8835 -0.4685
vn 0.3963 0.9181 -0.0000
vn 0.5047 0.7487 -0.4299
vn 0.4299 0.7487 -0.5047
vn 0.3197 0.8920 -0.3197
vn 0.3963 -0.0000 -0.9181
vn 0.5047 0.4299 -0.7487
vn 0.3197 0.3197 -0.8920
vn 0.4299 0.5047 -0.7487
vn 1.0000 -0.0000 -0.0000
vn 0.9181 0.3963 -0.0000
vn 0.8835 0.4685 -0.0000
vn 0.6967 0.6967 -0.1713
vn 0.4685 0.8835 -0.0000
vn 0.9181 -0.0000 -0.3963
vn 0.8920 0.3197 -0.3197
vn 0.7487 0.4299 -0.5047
vn 0.7487 0.5047 -0.4299
vn 0.8835 -0.0000 -0.4685
vn 0.4685 -0.0000 -0.8835
vn 0.6967 0.1713 -0.6967
s 0
usemtl Material
f 6//1 5//1 2//1 3//1
f 11//2 10//2 7//2 8//2
f 11//3 3//3 2//3 10//3
f 3//4 11//4 8//4 1//4
f 13//5 12//5 9//5 10//5
f 13//6 5//6 4//6 12//6
f 5//7 13//7 10//7 2//7
f 16//8 8//8 7//8 15//8
f 18//9 17//9 14//9 15//9
f 18//10 10//10 9//10 17//10
f 10//11 18//11 15//11 7//11
f 12//12 19//12 17//12 9//12
f 21//13 3//13 1//13 20//13
f 23//14 6//14 3//14 21//14
f 24//15 23//15 21//15 22//15
f 26//16 20//16 1//16 8//16
f 28//17 21//17 20//17 26//17
f 29//18 28//18 26//18 27//18
f 29//19 22//19 21//19 28//19
f 31//20 24//20 22//20 29//20
f 32//21 31//21 29//21 30//21
f 32//22 25//22 24//22 31//22
f 33//23 26//23 8//23 16//23
f 34//24 27//24 26//24 33//24
f 36//25 29//25 27//25 34//25
f 37//26 36//26 34//26 35//26
f 37//27 30//27 29//27 36//27
f 38//28 32//28 30//28 37//28
f 40//29 39//29 4//29 5//29
f 41//30 40//30 5//30 6//30
f 43//31 42//31 40//31 41//31
f 39//32 45//32 12//32 4//32
f 40//33 46//33 45//33 39//33
f 48//34 47//34 45//34 46//34
f 42//35 48//35 46//35 40//35
f 43//36 49//36 48//36 42//36
f 51//37 50//37 48//37 49//37
f 44//38 51//38 49//38 43//38
f 45//39 52//39 19//39 12//39
f 47//40 53//40 52//40 45//40
f 48//41 54//41 53//41 47//41
f 56//42 55//42 53//42 54//42
f 50//43 56//43 54//43 48//43
f 51//44 57//44 56//44 50//44
f 58//45 41//45 6//45 23//45
f 59//46 58//46 23//46 24//46
f 60//47 59//47 24//47 25//47
f 61//48 43//48 41//48 58//48
f 62//49 61//49 58//49 59//49
f 63//50 44//50 43//50 61//50
f 60//51 65//51 64//51 59//51
f 65//52 60//52 25//52 32//52
f 62//53 67//53 66//53 61//53
f 67//54 62//54 59//54 64//54
f 68//55 67//55 64//55 65//55
f 63//56 69//56 51//56 44//56
f 69//57 63//57 61//57 66//57
f 70//58 69//58 66//58 67//58
f 71//59 65//59 32//59 38//59
f 68//60 73//60 72//60 67//60
f 73//61 68//61 65//61 71//61
f 69//62 74//62 57//62 51//62
f 70//63 75//63 74//63 69//63
f 75//64 70//64 67//64 72//64
f 76//65 75//65 72//65 73//65
f 78//66 15//66 14//66 77//66
f 79//67 16//67 15//67 78//67
f 17//68 80//68 77//68 14//68
f 80//69 81//69 78//69 77//69
f 19//70 82//70 80//70 17//70
f 84//71 79//71 78//71 83//71
f 86//72 81//72 80//72 85//72
f 81//73 86//73 83//73 78//73
f 86//74 87//74 84//74 83//74
f 82//75 88//75 85//75 80//75
f 88//76 89//76 86//76 85//76
f 92//77 87//77 86//77 91//77
f 87//78 92//78 90//78 84//78
f 94//79 89//79 88//79 93//79
f 89//80 94//80 91//80 86//80
f 94//81 95//81 92//81 91//81
f 96//82 33//82 16//82 79//82
f 97//83 34//83 33//83 96//83
f 98//84 35//84 34//84 97//84
f 99//85 100//85 98//85 97//85
f 100//86 37//86 35//86 98//86
f 101//87 38//87 37//87 100//87
f 102//88 96//88 79//88 84//88
f 103//89 97//89 96//89 102//89
f 104//90 105//90 103//90 102//90
f 105//91 99//91 97//91 103//91
f 106//92 100//92 99//92 105//92
f 107//93 108//93 106//93 105//93
f 108//94 101//94 100//94 106//94
f 109//95 102//95 84//95 90//95
f 92//96 110//96 109//96 90//96
f 110//97 104//97 102//97 109//97
f 111//98 105//98 104//98 110//98
f 95//99 112//99 110//99 92//99
f 112//100 113//100 111//100 110//100
f 113//101 107//101 105//101 111//101
f 114//102 108//102 107//102 113//102
f 52//103 115//103 82//103 19//103
f 53//104 116//104 115//104 52//104
f 55//105 118//105 116//105 53//105
f 118//106 119//106 117//106 116//106
f 56//107 119//107 118//107 55//107
f 57//108 120//108 119//108 56//108
f 115//109 121//109 88//109 82//109
f 116//110 123//110 121//110 115//110
f 123//111 124//111 122//111 121//111
f 117//112 124//112 123//112 116//112
f 119//113 126//113 124//113 117//113
f 126//114 127//114 125//114 124//114
f 120//115 127//115 126//115 119//115
f 121//116 128//116 93//116 88//116
f 128//117 129//117 94//117 93//117
f 122//118 129//118 128//118 121//118
f 129//119 130//119 95//119 94//119
f 124//120 131//120 129//120 122//120
f 131//121 132//121 130//121 129//121
f 125//122 132//122 131//122 124//122
f 127//123 133//123 132//123 125//123
f 134//124 71//124 38//124 101//124
f 136//125 73//125 71//125 134//125
f 74//126 137//126 120//126 57//126
f 75//127 138//127 137//127 74//127
f 138//128 139//128 136//128 135//128
f 76//129 139//129 138//129 75//129
f 139//130 76//130 73//130 136//130
f 141//131 134//131 101//131 108//131
f 143//132 144//132 141//132 140//132
f 136//133 144//133 143//133 135//133
f 144//134 136//134 134//134 141//134
f 137//135 145//135 127//135 120//135
f 145//136 146//136 143//136 142//136
f 138//137 146//137 145//137 137//137
f 146//138 138//138 135//138 143//138
f 130//139 147//139 112//139 95//139
f 147//140 148//140 113//140 112//140
f 148//141 149//141 114//141 113//141
f 141//142 149//142 148//142 140//142
f 149//143 141//143 108//143 114//143
f 132//144 150//144 147//144 130//144
f 150//145 151//145 148//145 147//145
f 143//146 151//146 150//146 142//146
f 151//147 143//147 140//147 148//147
f 133//148 152//148 150//148 132//148
f 145//149 152//149 133//149 127//149
f 152//150 145//150 142//150 150//150
